<svg xmlns="http://www.w3.org/2000/svg" width="177.139" height="74.734" viewBox="0 0 177.139 74.734">
  <g id="Group_60863" data-name="Group 60863" transform="translate(-5462.419 -780)">
    <path id="Path_51319" data-name="Path 51319" d="M12.531-35.951a18.256,18.256,0,0,1,7,1.127A7.644,7.644,0,0,1,23.5-31.14a15.4,15.4,0,0,1,1.3,6.908V-6.8H18.246L17.67-9.786H17.3a6.827,6.827,0,0,1-2.923,2.648,9.512,9.512,0,0,1-4.129.865A9.592,9.592,0,0,1,5.715-7.3a7.184,7.184,0,0,1-2.989-2.9,8.793,8.793,0,0,1-1.049-4.365,7.935,7.935,0,0,1,2.674-6.423q2.674-2.255,8.547-2.674L16.988-24v-.655a6.392,6.392,0,0,0-.577-2.989,3.255,3.255,0,0,0-1.861-1.534,10.782,10.782,0,0,0-3.513-.459,25.3,25.3,0,0,0-3.592.275,22.622,22.622,0,0,0-3.644.826v-6.292a26.883,26.883,0,0,1,4.234-.839A36.894,36.894,0,0,1,12.531-35.951Zm.446,23.857a5.641,5.641,0,0,0,2.137-.419,5.3,5.3,0,0,0,1.874-1.311v-5.532l-3.225.288q-4.221.341-4.221,3.67a3.232,3.232,0,0,0,.891,2.451A3.536,3.536,0,0,0,12.977-12.093Zm31.512-.97a18.825,18.825,0,0,0,2.858-.288v6.476a17.057,17.057,0,0,1-2.4.446,21.884,21.884,0,0,1-2.582.157q-5.086,0-7.721-2.609T32.01-17.075V-29.16H27.632v-6.318H32.01L33.478-45.6h6.554v10.12H47.19v6.318H40.032v11.037a8.247,8.247,0,0,0,.446,3.015,2.862,2.862,0,0,0,1.416,1.573A5.99,5.99,0,0,0,44.489-13.063Zm6.449-22.415h6.58l.629,3.88h.367a7.208,7.208,0,0,1,2.949-3.251A8.629,8.629,0,0,1,65.751-35.9a12.818,12.818,0,0,1,2.176.21V-28.3a13.465,13.465,0,0,0-2.7-.21,9.282,9.282,0,0,0-3.579.721A6.24,6.24,0,0,0,58.961-25.8V-6.8H50.939ZM71.44-6.8V-35.479h8.049V-6.8Zm4.037-32.823a5.411,5.411,0,0,1-3.762-1.14A4.169,4.169,0,0,1,70.47-44a4.2,4.2,0,0,1,1.245-3.264,5.411,5.411,0,0,1,3.762-1.14,5.328,5.328,0,0,1,3.736,1.154A4.211,4.211,0,0,1,80.459-44a4.169,4.169,0,0,1-1.245,3.238A5.368,5.368,0,0,1,75.477-39.621Zm25.4,18.273L110.4-6.8h-8.783l-5.532-8.7-5.61,8.7h-8.52l9.386-14.445-9.2-14.236h8.756l5.322,8.311,5.322-8.311h8.52Z" transform="translate(5525.431 848.686)" fill="#1d3557"/>
    <g id="Group_60862" data-name="Group 60862" transform="translate(5462.419 780)">
      <path id="Path_51320" data-name="Path 51320" d="M10.81,0A10.81,10.81,0,1,1,0,10.81,10.81,10.81,0,0,1,10.81,0Z" transform="translate(28.419 0)" fill="#e63946"/>
      <path id="Path_51321" data-name="Path 51321" d="M8.271,0A8.271,8.271,0,1,1,0,8.271,8.271,8.271,0,0,1,8.271,0Z" transform="translate(9.405 13.349)" fill="#1d3557"/>
      <path id="Subtraction_2" data-name="Subtraction 2" d="M5.166,31.857h0A5.157,5.157,0,0,1,.708,24.108L13.232,2.565a5.157,5.157,0,0,1,8.917,0L32.968,21.643a3.745,3.745,0,0,1,.016,3.886,6.8,6.8,0,0,1-5.742,3.046L14.507,30.468l4.013-7.452a2.054,2.054,0,0,0,.115-1.6,4.15,4.15,0,0,0-2.073-2.307,4.6,4.6,0,0,0-2.13-.555,2.408,2.408,0,0,0-2.239,1.123L5.538,31.8l-.372.055Z" transform="translate(0 32.5)" fill="#1d3557"/>
      <path id="Union_3" data-name="Union 3" d="M0,39.914l3.82-6.579a5.085,5.085,0,0,1,.517-1.211L21.382,3.148a5,5,0,0,1,8.619,0L47.046,32.125a5,5,0,0,1-4.309,7.535h-16.1l6.188-11.532a4.256,4.256,0,0,0-1.785-5.784,4.34,4.34,0,0,0-5.389,1.094L11.3,50.035Z" transform="translate(13.488 24.699)" fill="#1d3557"/>
    </g>
    <path id="Line_2832" data-name="Line 2832" d="M138.39.719H0V-1H138.39Z" transform="translate(5501.169 847.616)" fill="#1d3557"/>
  </g>
</svg>
